<svg xmlns="http://www.w3.org/2000/svg" viewBox="0 0 1200 300">
  <!-- Subtle wave background with reduced height -->
  <path d="M0,25 C150,40 250,10 400,25 C550,40 650,10 800,25 C950,40 1050,10 1200,25 L1200,300 L0,300 Z" fill="#63a49d" opacity="0.05"/>
  <path d="M0,75 C150,90 250,60 400,75 C550,90 650,60 800,75 C950,90 1050,60 1200,75 L1200,300 L0,300 Z" fill="#63a49d" opacity="0.03"/>
  
  <!-- Scattered dots pattern with reduced vertical distribution -->
  <g opacity="0.2">
    <circle cx="100" cy="50" r="3" fill="#63a49d"/>
    <circle cx="200" cy="75" r="2" fill="#63a49d"/>
    <circle cx="300" cy="60" r="4" fill="#63a49d"/>
    <circle cx="400" cy="100" r="2" fill="#63a49d"/>
    <circle cx="500" cy="50" r="3" fill="#63a49d"/>
    <circle cx="600" cy="90" r="3" fill="#63a49d"/>
    <circle cx="700" cy="75" r="2" fill="#63a49d"/>
    <circle cx="800" cy="110" r="4" fill="#63a49d"/>
    <circle cx="900" cy="65" r="3" fill="#63a49d"/>
    <circle cx="1000" cy="95" r="2" fill="#63a49d"/>
    <circle cx="1100" cy="80" r="3" fill="#63a49d"/>
    
    <circle cx="150" cy="125" r="2" fill="#63a49d"/>
    <circle cx="250" cy="150" r="3" fill="#63a49d"/>
    <circle cx="350" cy="135" r="2" fill="#63a49d"/>
    <circle cx="450" cy="160" r="4" fill="#63a49d"/>
    <circle cx="550" cy="140" r="2" fill="#63a49d"/>
    <circle cx="650" cy="155" r="3" fill="#63a49d"/>
    <circle cx="750" cy="135" r="3" fill="#63a49d"/>
    <circle cx="850" cy="165" r="2" fill="#63a49d"/>
    <circle cx="950" cy="145" r="4" fill="#63a49d"/>
    <circle cx="1050" cy="155" r="3" fill="#63a49d"/>
    <circle cx="1150" cy="135" r="2" fill="#63a49d"/>
    
    <circle cx="120" cy="190" r="3" fill="#63a49d"/>
    <circle cx="220" cy="210" r="2" fill="#63a49d"/>
    <circle cx="320" cy="195" r="4" fill="#63a49d"/>
    <circle cx="420" cy="215" r="2" fill="#63a49d"/>
    <circle cx="520" cy="200" r="3" fill="#63a49d"/>
    <circle cx="620" cy="220" r="3" fill="#63a49d"/>
    <circle cx="720" cy="205" r="2" fill="#63a49d"/>
    <circle cx="820" cy="225" r="4" fill="#63a49d"/>
    <circle cx="920" cy="200" r="3" fill="#63a49d"/>
    <circle cx="1020" cy="215" r="2" fill="#63a49d"/>
    <circle cx="1120" cy="205" r="3" fill="#63a49d"/>
  </g>
  
  <!-- Subtle diagonal lines with reduced height -->
  <g opacity="0.1" stroke="#63a49d" stroke-width="1">
    <line x1="0" y1="250" x2="50" y2="200"/>
    <line x1="200" y1="250" x2="250" y2="200"/>
    <line x1="400" y1="250" x2="450" y2="200"/>
    <line x1="600" y1="250" x2="650" y2="200"/>
    <line x1="800" y1="250" x2="850" y2="200"/>
    <line x1="1000" y1="250" x2="1050" y2="200"/>
  </g>
</svg>
